<svg width="196" height="216" viewBox="0 0 196 216" fill="none" xmlns="http://www.w3.org/2000/svg">
<circle cx="114" cy="82" r="82" fill="url(#paint0_radial_2_77)"/>
<path fill-rule="evenodd" clip-rule="evenodd" d="M75 85.5C76.3872 82.8509 77.6589 81.3216 81 78.5H32.099C31.9225 82.2943 31.903 83.9442 32.099 85.5H75Z" fill="#212121"/>
<path d="M9.5 78.5C9.97436 82.1032 11.1606 83.7358 16 85.5H32.099C31.903 83.9442 31.9225 82.2943 32.099 78.5H9.5Z" fill="#D44D5C"/>
<path d="M32.099 78.5H9.5C9.97436 82.1032 11.1606 83.7358 16 85.5H32.099M32.099 78.5H81C77.6589 81.3216 76.3872 82.8509 75 85.5H32.099M32.099 78.5C31.9225 82.2943 31.903 83.9442 32.099 85.5" stroke="#212121" stroke-width="0.3"/>
<path d="M144 142.5C148.593 140.59 149.013 139.377 146.5 137H61.5C61.3626 137.525 61.4176 137.922 62 139C64.674 140.152 65.9293 141.101 68 143L144 142.5Z" fill="#212121"/>
<path d="M104.5 131C103.161 129.723 102.298 128.665 100.5 126C100.352 125.567 100.073 125.516 99.5 125.5H69.5C67.5849 126.305 65.319 128.335 62 131H104.5Z" fill="#212121"/>
<path d="M144 142.5C148.593 140.59 149.013 139.377 146.5 137H61.5C61.3626 137.525 61.4176 137.922 62 139C64.674 140.152 65.9293 141.101 68 143L144 142.5Z" stroke="black" stroke-width="0.3"/>
<path d="M104.5 131C103.161 129.723 102.298 128.665 100.5 126C100.352 125.567 100.073 125.516 99.5 125.5H69.5C67.5849 126.305 65.319 128.335 62 131H104.5Z" stroke="black" stroke-width="0.3"/>
<path d="M94 120H77C82.5833 116.927 84.9282 114.534 89 112.5C90.433 116.686 91.6795 117.961 94 120Z" fill="#212121"/>
<path d="M132 131C133.191 129.207 133.23 128.077 133 126L148.5 125.5C151.731 127.552 151.907 128.738 145.5 131H132Z" fill="#212121"/>
<path d="M94 120H77C82.5833 116.927 84.9282 114.534 89 112.5C90.433 116.686 91.6795 117.961 94 120Z" stroke="black" stroke-width="0.3"/>
<path d="M132 131C133.191 129.207 133.23 128.077 133 126L148.5 125.5C151.731 127.552 151.907 128.738 145.5 131H132Z" stroke="black" stroke-width="0.3"/>
<path d="M124 118C123.5 116.5 124 116.172 124 115H154C156.245 117.837 156.327 119.19 151 120.5H127.5C127.5 120.5 124.5 119.5 124 118Z" fill="#212121" stroke="black" stroke-width="0.3"/>
<path d="M145.5 103.5L134.5 108.5H153C156.862 107.27 156.095 106.032 153 103.5H145.5Z" fill="#212121" stroke="black" stroke-width="0.3"/>
<path d="M138.231 154.502C138.407 154.501 138.581 154.453 138.731 154.361C141.091 152.927 141.818 151.802 141.968 149.992C142.014 149.445 141.557 149 141.008 149H66.8357C70.6979 151.651 72.5916 152.976 76.712 154.977L138.231 154.502Z" fill="#212121"/>
<path d="M15.2152 149C15.0734 149 14.9312 149.031 14.8024 149.09C11.4837 150.615 10.1912 151.935 9.37593 154.25C9.15742 154.871 9.64655 155.495 10.3044 155.49L76.712 154.977C72.5916 152.976 70.6979 151.651 66.8357 149H15.2152Z" fill="#D44D5C"/>
<path d="M66.8357 149H15.2152C15.0734 149 14.9312 149.031 14.8024 149.09C11.4837 150.615 10.1912 151.935 9.37593 154.25C9.15742 154.871 9.64655 155.495 10.3044 155.49L76.712 154.977M66.8357 149H141.008C141.557 149 142.014 149.445 141.968 149.992C141.818 151.802 141.091 152.927 138.731 154.361C138.581 154.453 138.407 154.501 138.231 154.502L76.712 154.977M66.8357 149C70.6979 151.651 72.5916 152.976 76.712 154.977" stroke="#212121" stroke-width="0.3"/>
<path fill-rule="evenodd" clip-rule="evenodd" d="M109.5 42.5H99.5C91.79 43.9756 87.5386 45.1606 80 47.5H75C69.465 46.7982 66.533 46.0831 62 43.5H41.6268C40.2468 46.1506 39.4629 47.5796 38.5 50H102C105.677 47.2203 107.094 45.5333 109.5 42.5Z" fill="#212121"/>
<path d="M39.5 43.5C28.9276 44.237 23.0834 44.7394 13 46C14.1948 48.185 15.3146 49.0399 18 50H38.5C39.4629 47.5796 40.2468 46.1506 41.6268 43.5H39.5Z" fill="#D44D5C"/>
<path d="M41.6268 43.5H62C66.533 46.0831 69.465 46.7982 75 47.5H80C87.5385 45.1606 91.79 43.9756 99.5 42.5H109.5C107.094 45.5333 105.677 47.2203 102 50H38.5M41.6268 43.5H39.5C28.9276 44.237 23.0834 44.7394 13 46C14.1948 48.185 15.3146 49.0399 18 50H38.5M41.6268 43.5C40.2468 46.1506 39.4629 47.5796 38.5 50" stroke="#212121" stroke-width="0.3"/>
<path fill-rule="evenodd" clip-rule="evenodd" d="M92.5 61.5C94.1033 59.2512 95.1911 58.0459 97.5 56H36C35 58.5 35 59.5 34.5 61.5H92.5Z" fill="#212121"/>
<path d="M11 56C12.6361 59.0386 14.1248 60.2785 18 61.5H34.5C35 59.5 35 58.5 36 56H11Z" fill="#D44D5C"/>
<path d="M36 56H11C12.6361 59.0386 14.1248 60.2785 18 61.5H34.5M36 56H97.5C95.1911 58.0459 94.1033 59.2512 92.5 61.5H34.5M36 56C35 58.5 35 59.5 34.5 61.5" stroke="#212121" stroke-width="0.3"/>
<path d="M36 56C35.3168 58.1062 34.9919 59.3104 34.5 61.5" stroke="#212121" stroke-width="0.3"/>
<path fill-rule="evenodd" clip-rule="evenodd" d="M88 67L33.5 67C32.6907 69.4169 32.5 71 32.5 73.5L83.5 73L85.5 70L88 67Z" fill="#212121"/>
<path d="M14.5 67C10.5 67 12.7278 70.9604 14.5 73.5H32.5C32.5 71 32.6907 69.4169 33.5 67L14.5 67Z" fill="#D44D5C"/>
<path d="M88 67L85.5 70L83.5 73L32.5 73.5M88 67C88 67 55.3309 67 33.5 67M88 67L33.5 67M14.5 67C10.5 67 12.7278 70.9604 14.5 73.5H32.5M14.5 67C15.7576 67 23.4893 67 33.5 67M14.5 67L33.5 67M33.5 67C32.6907 69.4169 32.5 71 32.5 73.5" stroke="#212121" stroke-width="0.3"/>
<path fill-rule="evenodd" clip-rule="evenodd" d="M64.5 96.5C66.7151 93.8583 68.096 92.4212 71 90H32.5C32.7733 93.0874 33.0268 94.5637 33.5 97L64.5 96.5Z" fill="#212121"/>
<path d="M10.5 90C11.3843 93.6925 13.1902 95.3824 19.5 97.5L33.5 97C33.0268 94.5637 32.7733 93.0874 32.5 90H10.5Z" fill="#D44D5C"/>
<path d="M33.5 97L64.5 96.5C66.7151 93.8583 68.096 92.4212 71 90H32.5M33.5 97L19.5 97.5C13.1902 95.3824 11.3843 93.6925 10.5 90H32.5M33.5 97C33.0268 94.5637 32.7733 93.0874 32.5 90" stroke="#212121" stroke-width="0.3"/>
<path d="M43.6211 125.803C43.5395 125.603 43.4936 125.351 43.4809 125.136C43.3937 123.663 41.6634 123.114 40.5298 124.058L40 124.5L37.5 127C38.631 129.231 39.3903 130.334 41 132C42.1996 133.233 42.9376 133.903 44.2888 134.853C44.4284 134.951 44.5568 135.066 44.6675 135.196C45.7997 136.522 46.4502 137.385 47.5 139C48.0569 140.114 48.3812 140.762 48.9152 141.83C48.9715 141.943 49.0384 142.051 49.1155 142.15C50.1966 143.547 50.8524 144.127 52 145L54.3626 146.418C54.454 146.472 54.5498 146.52 54.6488 146.56L59.5 148.5L61.5 149C62.0527 148.694 62.3745 148.419 62.7735 147.844C62.9285 147.621 63.0257 147.362 63.0553 147.091C63.0808 146.859 63.0914 146.649 63.0873 146.433C63.0763 145.839 62.7128 145.31 62.1866 145.035C61.4478 144.648 60.7111 144.372 59.5 144C58.059 143.339 57.1939 142.626 55.7861 141.276C55.5968 141.094 55.4455 140.876 55.3437 140.634C54.7706 139.272 54.3484 138.008 53.5747 135.265C53.5251 135.09 53.5 134.907 53.5 134.725V132.106C53.5 132.036 53.5185 131.921 53.5351 131.852C53.6954 131.189 53.2036 130.5 52.5211 130.5H49.2662C49.0895 130.5 48.9133 130.477 48.7433 130.429C47.558 130.093 46.839 129.778 45.8314 129.195C45.6116 129.068 45.4198 128.897 45.268 128.693C44.5239 127.696 44.102 126.982 43.6211 125.803Z" fill="#212121"/>
<path d="M59.5 149.5C60.325 149.456 60.7589 149.333 61.5 149L59.5 148.5L54.6488 146.56C54.5498 146.52 54.454 146.472 54.3626 146.418L52 145C50.8524 144.127 50.1966 143.547 49.1155 142.15C49.0384 142.051 48.9715 141.943 48.9152 141.83C48.3812 140.762 48.0569 140.114 47.5 139C46.4502 137.385 45.7997 136.522 44.6675 135.196C44.5568 135.066 44.4284 134.951 44.2888 134.853C42.9376 133.903 42.1996 133.233 41 132C39.3903 130.334 38.631 129.231 37.5 127L35.4356 128.18C34.6024 128.656 34.2044 129.668 34.6392 130.524C35.2977 131.819 36.1782 132.891 37.363 133.886C37.4536 133.962 37.5391 134.046 37.6164 134.136C39.3348 136.128 40.5698 137.154 42.6659 138.747C42.8856 138.914 43.0695 139.125 43.2052 139.365C44.1353 141.012 44.7938 142.07 45.8889 143.369C45.9625 143.456 46.0294 143.55 46.0883 143.648C47.2279 145.539 48.1213 146.505 50 148C51.337 148.876 52.2367 149.174 54 149.5C55.677 149.657 56.8542 149.667 59.5 149.5Z" fill="#FEB914"/>
<path d="M61.5 149C62.0527 148.694 62.3745 148.419 62.7735 147.844C62.9285 147.621 63.0257 147.362 63.0553 147.091C63.0808 146.859 63.0914 146.649 63.0873 146.433C63.0763 145.839 62.7128 145.31 62.1866 145.035C61.4478 144.648 60.7111 144.372 59.5 144C58.059 143.339 57.1939 142.626 55.7861 141.276C55.5968 141.094 55.4455 140.876 55.3437 140.634C54.7706 139.272 54.3484 138.008 53.5747 135.265C53.5251 135.09 53.5 134.907 53.5 134.725V132.106C53.5 132.036 53.5185 131.921 53.5351 131.852V131.852C53.6954 131.189 53.2036 130.5 52.5211 130.5H49.2662C49.0895 130.5 48.9133 130.477 48.7433 130.429C47.558 130.093 46.839 129.778 45.8314 129.195C45.6116 129.068 45.4198 128.897 45.268 128.693C44.5239 127.696 44.102 126.982 43.6211 125.803C43.5395 125.603 43.4936 125.351 43.4809 125.136V125.136C43.3937 123.663 41.6634 123.114 40.5298 124.058L40 124.5L37.5 127M61.5 149C60.7589 149.333 60.325 149.456 59.5 149.5C56.8542 149.667 55.6771 149.657 54 149.5C52.2367 149.174 51.337 148.876 50 148C48.1213 146.505 47.2279 145.539 46.0883 143.648C46.0294 143.55 45.9625 143.456 45.8889 143.369C44.7938 142.07 44.1353 141.012 43.2052 139.365C43.0695 139.125 42.8856 138.914 42.6659 138.747C40.5698 137.154 39.3348 136.128 37.6164 134.136C37.5391 134.046 37.4536 133.962 37.363 133.886C36.1782 132.891 35.2977 131.819 34.6392 130.524C34.2044 129.668 34.6024 128.656 35.4356 128.18L37.5 127M61.5 149L59.5 148.5L54.6488 146.56C54.5498 146.52 54.454 146.472 54.3626 146.418L52 145C50.8524 144.127 50.1966 143.547 49.1155 142.15C49.0384 142.051 48.9715 141.943 48.9152 141.83C48.3812 140.762 48.0569 140.114 47.5 139C46.4502 137.385 45.7997 136.522 44.6675 135.196C44.5568 135.066 44.4284 134.951 44.2888 134.853C42.9376 133.903 42.1996 133.233 41 132C39.3903 130.334 38.631 129.231 37.5 127" stroke="black" stroke-width="0.3"/>
<path d="M105.621 105.803C105.539 105.603 105.494 105.351 105.481 105.136C105.394 103.663 103.663 103.114 102.53 104.058L102 104.5L99.5 107C100.631 109.231 101.39 110.334 103 112C104.2 113.233 104.938 113.903 106.289 114.853C106.428 114.951 106.557 115.066 106.668 115.196C107.8 116.522 108.45 117.385 109.5 119C110.057 120.114 110.381 120.762 110.915 121.83C110.971 121.943 111.038 122.051 111.116 122.15C112.197 123.547 112.852 124.127 114 125L116.363 126.418C116.454 126.472 116.55 126.52 116.649 126.56L121.5 128.5L123.5 129C124.053 128.694 124.374 128.419 124.773 127.844C124.928 127.621 125.026 127.362 125.055 127.091C125.081 126.859 125.091 126.649 125.087 126.433C125.076 125.839 124.713 125.31 124.187 125.035C123.448 124.648 122.711 124.372 121.5 124C120.059 123.339 119.194 122.626 117.786 121.276C117.597 121.094 117.445 120.876 117.344 120.634C116.771 119.272 116.348 118.008 115.575 115.265C115.525 115.09 115.5 114.907 115.5 114.725V112.106C115.5 112.036 115.519 111.921 115.535 111.852C115.695 111.189 115.204 110.5 114.521 110.5H111.266C111.09 110.5 110.913 110.477 110.743 110.429C109.558 110.093 108.839 109.778 107.831 109.195C107.612 109.068 107.42 108.897 107.268 108.693C106.524 107.696 106.102 106.982 105.621 105.803Z" fill="#212121"/>
<path d="M121.5 129.5C122.325 129.456 122.759 129.333 123.5 129L121.5 128.5L116.649 126.56C116.55 126.52 116.454 126.472 116.363 126.418L114 125C112.852 124.127 112.197 123.547 111.116 122.15C111.038 122.051 110.971 121.943 110.915 121.83C110.381 120.762 110.057 120.114 109.5 119C108.45 117.385 107.8 116.522 106.668 115.196C106.557 115.066 106.428 114.951 106.289 114.853C104.938 113.903 104.2 113.233 103 112C101.39 110.334 100.631 109.231 99.5 107L97.4356 108.18C96.6024 108.656 96.2044 109.668 96.6392 110.524C97.2977 111.819 98.1782 112.891 99.363 113.886C99.4536 113.962 99.5391 114.046 99.6164 114.136C101.335 116.128 102.57 117.154 104.666 118.747C104.886 118.914 105.069 119.125 105.205 119.365C106.135 121.012 106.794 122.07 107.889 123.369C107.963 123.456 108.029 123.55 108.088 123.648C109.228 125.539 110.121 126.505 112 128C113.337 128.876 114.237 129.174 116 129.5C117.677 129.657 118.854 129.667 121.5 129.5Z" fill="#FEB914"/>
<path d="M123.5 129C124.053 128.694 124.374 128.419 124.773 127.844C124.928 127.621 125.026 127.362 125.055 127.091C125.081 126.859 125.091 126.649 125.087 126.433C125.076 125.839 124.713 125.31 124.187 125.035C123.448 124.648 122.711 124.372 121.5 124C120.059 123.339 119.194 122.626 117.786 121.276C117.597 121.094 117.445 120.876 117.344 120.634C116.771 119.272 116.348 118.008 115.575 115.265C115.525 115.09 115.5 114.907 115.5 114.725V112.106C115.5 112.036 115.519 111.921 115.535 111.852V111.852C115.695 111.189 115.204 110.5 114.521 110.5H111.266C111.09 110.5 110.913 110.477 110.743 110.429C109.558 110.093 108.839 109.778 107.831 109.195C107.612 109.068 107.42 108.897 107.268 108.693C106.524 107.696 106.102 106.982 105.621 105.803C105.539 105.603 105.494 105.351 105.481 105.136V105.136C105.394 103.663 103.663 103.114 102.53 104.058L102 104.5L99.5 107M123.5 129C122.759 129.333 122.325 129.456 121.5 129.5C118.854 129.667 117.677 129.657 116 129.5C114.237 129.174 113.337 128.876 112 128C110.121 126.505 109.228 125.539 108.088 123.648C108.029 123.55 107.963 123.456 107.889 123.369C106.794 122.07 106.135 121.012 105.205 119.365C105.069 119.125 104.886 118.914 104.666 118.747C102.57 117.154 101.335 116.128 99.6164 114.136C99.5391 114.046 99.4536 113.962 99.363 113.886C98.1782 112.891 97.2977 111.819 96.6392 110.524C96.2044 109.668 96.6024 108.656 97.4356 108.18L99.5 107M123.5 129L121.5 128.5L116.649 126.56C116.55 126.52 116.454 126.472 116.363 126.418L114 125C112.852 124.127 112.197 123.547 111.116 122.15C111.038 122.051 110.971 121.943 110.915 121.83C110.381 120.762 110.057 120.114 109.5 119C108.45 117.385 107.8 116.522 106.668 115.196C106.557 115.066 106.428 114.951 106.289 114.853C104.938 113.903 104.2 113.233 103 112C101.39 110.334 100.631 109.231 99.5 107" stroke="black" stroke-width="0.3"/>
<g filter="url(#filter0_d_2_77)">
<path d="M66.0105 38.8299C65.7776 38.6273 65.6243 38.3786 65.5856 38.0723C65.5032 37.4211 66.0418 36.8522 66.6558 36.62C69.5509 35.5252 71.8575 34.8793 73.6768 33.5C74.9777 32.7166 74.7963 32.1857 75.6768 32C77.0453 31.7872 77.4335 32.0558 78.5173 32.0089C78.6231 32.0043 78.7297 32.0048 78.8352 32.0144L84.1767 32.5H86.1767L86.2428 32.4779C95.7969 29.2819 101.277 27.4488 109.305 26.0636C109.549 26.0214 109.8 26.025 110.042 26.0766C122.009 28.6213 136.182 35.2248 136.677 35.5C137.129 35.7512 139.416 37.5742 140.408 37.9373C140.581 38.0007 140.765 38.0322 140.944 38.0747C141.021 38.0927 141.089 38.1053 141.151 38.1125C141.508 38.154 141.763 37.8306 141.945 37.5207C142.085 37.2818 142.218 37.0796 142.381 36.8648C142.568 36.619 142.718 36.3445 142.783 36.0426C143.177 34.2006 143.177 32.4237 143.177 31.5C143.294 28.2918 143.968 28.1061 145.677 26.5C147.62 24.8637 148.991 24.2628 151.969 24.0164C152.106 24.005 152.247 24.0091 152.383 24.0279C155.56 24.4659 156.733 25.0835 158.177 26.5C159.527 27.9047 160.098 28.7565 160.584 30.2107C160.647 30.4017 160.677 30.6024 160.677 30.8038V33.7216C160.677 33.9063 160.652 34.0912 160.598 34.2678C159.968 36.3157 159.177 37.0407 159.177 38V39.1071C159.177 39.6754 158.93 40.2122 158.526 40.6118C157.005 42.116 156.159 43.5518 155.156 45.8616C154.855 46.5559 154.199 47.0515 153.442 47.0396C151.814 47.014 150.595 46.651 149.209 46.0172C148.112 45.5161 146.811 46.0022 146.364 47.1217C144.985 50.5798 143.804 52.7343 141.811 55.7941C141.722 55.9303 141.615 56.0578 141.495 56.168C134.406 62.718 129.963 65.2381 121.677 68.5C116.618 70.3938 113.163 71.3946 109.012 72.5344C107.679 72.9006 107.794 74.4885 109.177 74.5C112.792 74.4312 115.105 74.3265 117.677 74.5H122.177C142.535 75.7373 148.493 79.2601 151.917 84.1211C152.091 84.3685 152.2 84.6556 152.236 84.956C152.406 86.3869 152.344 87.1969 152.177 88.5C151.188 92.5346 149.839 93.9052 146.677 95.5C131.183 102.576 116.132 107.765 115.677 108C115.387 108.15 113.667 108.214 112.439 108.175C111.653 108.149 110.666 107.925 109.951 107.599C108.958 107.147 108.577 106.514 108.177 105.5C107.893 104.782 107.858 104.307 107.915 103.921C108.004 103.322 108.502 102.865 109.057 102.622C112.598 101.075 116.785 98.926 125.177 94.5C131.315 91.1392 134.827 89.2374 137.724 88.5916C138.02 88.5255 138.598 88.3733 138.42 88.1275C138.305 87.9689 138.077 88 137.881 88.0023C133.571 88.0533 129.335 88.8464 120.177 91C114.768 91.7071 111.968 91.8145 107.972 91.5552C107.461 91.522 106.955 91.6821 106.557 92.0053C102.413 95.3775 99.925 97.216 95.6767 100C91.2903 103.232 88.7965 104.88 84.1767 107C74.5391 112.673 71.3995 114.813 64.6767 119.5L58.1767 124C55.9839 125.893 54.4029 127.047 52.8575 127.901C52.7376 127.968 52.6101 128.021 52.4781 128.057C51.0685 128.446 50.3664 128.302 49.1767 128C47.8053 127.741 47.0778 127.036 46.279 125.677C46.2103 125.56 46.1541 125.435 46.1168 125.305C45.9889 124.858 45.9604 124.502 46.0596 123.987C46.1217 123.664 46.2975 123.373 46.5247 123.136C53.1406 116.221 57.2305 112.311 64.6768 105.5L71.6767 100C73.4996 98.6679 74.3958 97.9049 75.6768 96.5C80.2482 90.2649 83.7205 86.1907 85.6768 84.5C86.0496 84.191 86.3571 83.9817 86.6327 83.8567C86.9281 83.7227 87.6446 82.8492 87.6743 82.5263C87.6759 82.5092 87.676 82.4912 87.6746 82.4741C87.619 81.7932 87.6117 81.452 87.6767 81L87.6917 80.9469C88.608 77.7006 89.1263 75.8641 90.6768 74C93.6775 69.9611 95.5208 67.3112 98.6768 64C106.112 55.5486 111.353 49.8259 118.315 43.6319C119.267 42.7855 119.218 41.2734 118.166 40.556C114.302 37.9208 111.233 36.6154 109.594 35.7341C109.316 35.5847 109.012 35.4894 108.698 35.4698C106.678 35.344 105.019 35.2705 102.177 35.5C95.3706 36.3448 90.8836 36.989 87.1767 38C83.5484 39.155 82.455 39.5569 79.9074 40.4218C79.7544 40.4737 79.5945 40.5071 79.4335 40.5202C76.1649 40.787 74.3379 40.721 71.1767 40.5C69.4423 40.3336 68.5788 40.0991 67.1767 39.5C66.6326 39.2698 66.3106 39.091 66.0105 38.8299Z" fill="#212121"/>
<path d="M86.1767 32.5H84.1767L78.8352 32.0144C78.7297 32.0048 78.6231 32.0043 78.5173 32.0089C77.4335 32.0558 77.0453 31.7872 75.6768 32C74.7963 32.1857 74.9777 32.7166 73.6768 33.5C71.8575 34.8793 69.5509 35.5252 66.6558 36.62C66.0418 36.8522 65.5032 37.4211 65.5856 38.0723V38.0723C65.6243 38.3786 65.7776 38.6273 66.0105 38.8299C66.3106 39.091 66.6326 39.2698 67.1767 39.5C68.5788 40.0991 69.4423 40.3336 71.1767 40.5C74.3379 40.721 76.1649 40.787 79.4335 40.5202C79.5945 40.5071 79.7544 40.4737 79.9074 40.4218C82.455 39.5569 83.5484 39.155 87.1767 38C90.8836 36.989 95.3706 36.3448 102.177 35.5C105.019 35.2705 106.678 35.344 108.698 35.4698C109.012 35.4894 109.316 35.5847 109.594 35.7341C111.233 36.6154 114.302 37.9208 118.166 40.556C119.218 41.2734 119.267 42.7855 118.315 43.6319C111.353 49.8259 106.112 55.5486 98.6768 64C95.5208 67.3112 93.6775 69.9611 90.6768 74C89.1263 75.8641 88.608 77.7006 87.6917 80.9469M86.1767 32.5L86.2428 32.4779M86.1767 32.5C86.1988 32.4926 86.2208 32.4852 86.2428 32.4779M87.6767 81C87.6117 81.452 87.619 81.7932 87.6746 82.4741C87.676 82.4912 87.6759 82.5092 87.6743 82.5263V82.5263C87.6446 82.8492 86.9281 83.7227 86.6327 83.8567C86.3571 83.9817 86.0496 84.191 85.6768 84.5C83.7205 86.1907 80.2482 90.2649 75.6768 96.5C74.3958 97.9049 73.4996 98.6679 71.6767 100L64.6768 105.5C57.2305 112.311 53.1406 116.221 46.5247 123.136C46.2975 123.373 46.1217 123.664 46.0596 123.987C45.9604 124.502 45.9889 124.858 46.1168 125.305C46.1541 125.435 46.2103 125.56 46.279 125.677C47.0778 127.036 47.8053 127.741 49.1767 128C50.3664 128.302 51.0685 128.446 52.4781 128.057C52.6101 128.021 52.7376 127.968 52.8575 127.901C54.4029 127.047 55.9839 125.893 58.1767 124L64.6767 119.5C71.3995 114.813 74.5391 112.673 84.1767 107C88.7965 104.88 91.2903 103.232 95.6767 100C99.925 97.216 102.413 95.3775 106.557 92.0053C106.955 91.6821 107.461 91.522 107.972 91.5552C111.968 91.8145 114.768 91.7071 120.177 91C129.335 88.8464 133.571 88.0533 137.881 88.0023C138.077 88 138.305 87.9689 138.42 88.1275V88.1275C138.598 88.3733 138.02 88.5255 137.724 88.5916C134.827 89.2374 131.315 91.1392 125.177 94.5C116.785 98.926 112.598 101.075 109.057 102.622C108.502 102.865 108.004 103.322 107.915 103.921C107.858 104.307 107.893 104.782 108.177 105.5C108.577 106.514 108.958 107.147 109.951 107.599C110.666 107.925 111.653 108.149 112.439 108.175C113.667 108.214 115.387 108.15 115.677 108C116.132 107.765 131.183 102.576 146.677 95.5C149.839 93.9052 151.188 92.5346 152.177 88.5C152.344 87.1969 152.406 86.3869 152.236 84.956C152.2 84.6556 152.091 84.3685 151.917 84.1211C148.493 79.2601 142.535 75.7373 122.177 74.5H117.677C115.105 74.3265 112.792 74.4312 109.177 74.5V74.5C107.794 74.4885 107.679 72.9006 109.012 72.5344C113.163 71.3946 116.618 70.3938 121.677 68.5C129.963 65.2381 134.406 62.718 141.495 56.168C141.615 56.0578 141.722 55.9303 141.811 55.7941C143.804 52.7343 144.985 50.5798 146.364 47.1217C146.811 46.0022 148.112 45.5161 149.209 46.0172C150.595 46.651 151.814 47.014 153.442 47.0396C154.199 47.0515 154.855 46.5559 155.156 45.8616C156.159 43.5518 157.005 42.116 158.526 40.6118C158.93 40.2122 159.177 39.6754 159.177 39.1071V38C159.177 37.0407 159.968 36.3157 160.598 34.2678C160.652 34.0912 160.677 33.9063 160.677 33.7216V30.8038C160.677 30.6024 160.647 30.4017 160.584 30.2107C160.098 28.7565 159.527 27.9047 158.177 26.5C156.733 25.0835 155.56 24.4659 152.383 24.0279C152.247 24.0091 152.106 24.005 151.969 24.0164C148.991 24.2628 147.62 24.8637 145.677 26.5C143.968 28.1061 143.294 28.2918 143.177 31.5C143.177 32.4237 143.177 34.2006 142.783 36.0426C142.718 36.3445 142.568 36.619 142.381 36.8648C142.218 37.0796 142.085 37.2818 141.945 37.5207C141.763 37.8306 141.508 38.154 141.151 38.1125C141.089 38.1053 141.021 38.0927 140.944 38.0747C140.765 38.0322 140.581 38.0007 140.408 37.9373C139.416 37.5742 137.129 35.7512 136.677 35.5C136.182 35.2248 122.009 28.6213 110.042 26.0766C109.8 26.025 109.549 26.0214 109.305 26.0636C101.277 27.4488 95.7969 29.2819 86.2428 32.4779M87.6767 81L87.6917 80.9469M87.6767 81C87.6817 80.9823 87.6867 80.9646 87.6917 80.9469" stroke="black" stroke-width="0.3"/>
</g>
<path d="M142.592 57.8754C142.531 57.959 142.462 58.037 142.389 58.1097C141.17 59.3094 140.294 60.1767 139.254 60.9281C138.341 61.5881 137.989 62.7981 138.758 63.6219C141.166 66.2023 146.171 70.0517 152.217 74.7789C152.404 74.9245 152.614 75.043 152.844 75.0975C153.146 75.1691 153.371 75.1768 153.598 75.1303C153.871 75.0741 154.1 74.8947 154.293 74.6935C156.734 72.1587 158.593 70.6325 161.5 68L177.685 51.3249C177.892 51.111 178.046 50.8521 178.153 50.574C178.4 49.9341 178.71 49.3383 179.274 48.3803C179.422 48.1293 179.518 47.8498 179.541 47.5594C179.606 46.7715 179.598 46.1876 179.531 45.3555C179.512 45.1204 179.45 44.8897 179.342 44.6799C178.766 43.5605 178.173 42.9281 176.853 42.1909C176.622 42.0618 176.364 41.9872 176.1 41.967C175.09 41.8897 174.383 41.8868 173.324 41.9721C173.11 41.9894 172.888 42.0129 172.706 42.1276C172.095 42.512 170.798 43.6442 170.5 44C170.132 44.4388 168.966 45.7309 169 47.5V52.0695C169 52.6595 168.739 53.2205 168.286 53.5985C165.751 55.7144 164.053 57.0072 161 59L157 61.5C157 61.5 157 61.5 157 61.5C157 61.5 153.695 63.5656 153.469 64.3172C153.53 64.4762 153.543 64.5434 153.5 64.5C153.454 64.4545 153.446 64.3924 153.469 64.3172C152.828 62.6428 146.94 50.7858 147 50.5C147.065 50.1913 144.838 54.8017 142.592 57.8754Z" fill="#212121"/>
<path d="M153.469 64.3172C153.695 63.5656 157 61.5 157 61.5C157 61.5 157 61.5 157 61.5L161 59C164.053 57.0072 165.751 55.7144 168.286 53.5985C168.739 53.2205 169 52.6595 169 52.0695V47.5C168.966 45.7309 170.132 44.4388 170.5 44C170.798 43.6442 172.095 42.512 172.706 42.1276C172.888 42.0129 173.11 41.9894 173.324 41.9721C174.383 41.8868 175.09 41.8897 176.1 41.967C176.364 41.9872 176.622 42.0618 176.853 42.1909C178.173 42.9281 178.766 43.5605 179.342 44.6799C179.45 44.8897 179.512 45.1204 179.531 45.3555C179.598 46.1876 179.606 46.7715 179.541 47.5594C179.518 47.8498 179.422 48.1293 179.274 48.3803C178.71 49.3383 178.4 49.9341 178.153 50.574C178.046 50.8521 177.892 51.111 177.685 51.3249L161.5 68C158.593 70.6325 156.734 72.1587 154.293 74.6935C154.1 74.8947 153.871 75.0741 153.598 75.1303C153.371 75.1768 153.146 75.1691 152.844 75.0975C152.614 75.043 152.404 74.9245 152.217 74.7789C146.171 70.0517 141.166 66.2023 138.758 63.6219C137.989 62.7981 138.341 61.5881 139.254 60.9281C140.294 60.1767 141.17 59.3094 142.389 58.1097C142.462 58.037 142.531 57.959 142.592 57.8754C144.838 54.8017 147.065 50.1913 147 50.5C146.94 50.7858 152.828 62.6428 153.469 64.3172ZM153.469 64.3172C153.53 64.4762 153.543 64.5434 153.5 64.5C153.454 64.4545 153.446 64.3924 153.469 64.3172Z" stroke="black" stroke-width="0.3"/>
<path d="M3.50002 182C0.944963 179.265 1.20248 178.378 3.50002 177.5L22.5 176.5C25.3509 178.118 25.7447 179.331 22.5 182.5L3.50002 182Z" fill="#FEB914" stroke="#FEB914" stroke-width="0.3"/>
<path d="M2.49995 196.5C0.475143 193.968 -0.0297284 192.729 2.49995 191.5L23 191C24.9841 192.836 25.3493 194.039 22.5 197L2.49995 196.5Z" fill="#FEB914" stroke="#FEB914" stroke-width="0.3"/>
<path d="M5.49998 210C3.00444 207.788 3.00225 206.803 5.49998 205.5L22.5 204.5C25.4047 206.108 25.431 207.303 22.5 210H5.49998Z" fill="#FEB914" stroke="#FEB914" stroke-width="0.3"/>
<path d="M30.5 212.619V174.964C30.5 174.426 30.9274 173.984 31.465 173.964C42.9552 173.539 49.7935 173.265 56.8188 174.469C56.9385 174.489 57.0555 174.533 57.1595 174.595C67.4791 180.807 69.6726 189.754 59.208 199.366C58.8177 199.724 58.7542 200.327 59.0796 200.745L68.0064 212.222C68.4628 212.809 68.141 213.67 67.4074 213.791C64.2253 214.316 61.7591 214.362 58.0085 214.483C57.6894 214.494 57.3837 214.351 57.1869 214.1L48.8003 203.384C48.6107 203.141 48.3203 203 48.0128 203H41.5C40.9477 203 40.5 203.448 40.5 204V213.415C40.5 214 40.0004 214.46 39.4182 214.411C36.1163 214.138 34.0416 213.939 31.3741 213.61C30.8745 213.548 30.5 213.123 30.5 212.619Z" fill="white" stroke="#FEB914" stroke-width="0.3"/>
<path d="M40.3687 191.72C39.7648 187.971 39.9088 186.324 40.3495 184.199C40.4363 183.78 40.7872 183.467 41.212 183.421C46.6124 182.83 49.016 182.815 51.3393 183.455C51.4458 183.484 51.5455 183.532 51.6355 183.596C54.2031 185.423 57.2157 188.376 51.6991 192.358C51.5717 192.45 51.4187 192.512 51.263 192.533C48.2894 192.933 45.6614 192.81 41.2898 192.548C40.8274 192.52 40.4424 192.177 40.3687 191.72Z" fill="#D44D5C" stroke="#FEB914" stroke-width="0.3"/>
<path d="M78 173.5C81.1053 173.103 83.2954 173.103 88 173.5V198.5C90.7784 203.015 92.5216 204.345 96 204.5C103.518 203.658 103.506 201.281 104.5 197.5C104.368 187.985 104 173 105.5 173.5C107 174 114 174 114.5 174.5C115 175 114.5 201.5 114.5 201.5C113.203 206.126 112.017 207.986 109 211C107.053 213.76 103.602 214.548 96 215C92.3719 215.041 89.9533 214.077 83.5 210.5C80.9266 208.148 79.7064 205.915 78 200C77.4738 190.613 76.8464 185.957 78 173.5Z" fill="white" stroke="#FEB914" stroke-width="0.3"/>
<path d="M129.11 173.139L135.647 173.956C135.875 173.984 136.087 174.091 136.246 174.258L155.331 194.251C155.946 194.896 157.034 194.474 157.054 193.583L157.479 174.428C157.491 173.904 157.904 173.479 158.427 173.451L165.935 173.056C166.511 173.026 166.994 173.489 166.987 174.067L166.511 213.072C166.505 213.595 166.096 214.025 165.574 214.058L158.985 214.47C158.679 214.489 158.381 214.367 158.177 214.138L139.246 192.953C138.634 192.269 137.5 192.702 137.5 193.62V213.449C137.5 214.021 137.021 214.476 136.45 214.448L128.462 214.048C127.925 214.021 127.505 213.575 127.512 213.037L127.986 174.119C127.994 173.522 128.518 173.065 129.11 173.139Z" fill="white" stroke="#FEB914" stroke-width="0.3"/>
<path d="M188.685 173.843C185.346 173.232 183.166 173.236 179.83 173.842C179.35 173.929 179.01 174.357 179.023 174.844C179.257 183.643 179.336 189.092 180.5 194L180.91 198.099C180.961 198.611 181.391 199 181.905 199H187.095C187.609 199 188.039 198.611 188.09 198.099L188.5 194C189.579 188.465 189.413 183.013 189.491 174.829C189.496 174.349 189.158 173.93 188.685 173.843Z" fill="white" stroke="#FEB914" stroke-width="0.3"/>
<path d="M187.5 204.5C186.467 203.576 185.065 203.604 182.152 203.98C182.052 203.993 181.953 204.021 181.862 204.065C180.341 204.793 179.693 205.552 179.025 207.429C179.008 207.476 178.995 207.526 178.986 207.574C178.541 209.919 178.648 210.411 178.943 210.908C178.98 210.97 179.013 211.035 179.038 211.103C179.845 213.288 180.59 213.655 182 214C184.632 214.633 185.674 214.446 187.391 214.027C187.463 214.009 187.534 213.983 187.6 213.95C188.891 213.289 189.281 212.73 189.486 211.582C189.496 211.528 189.5 211.472 189.5 211.417V208.158C189.5 208.054 189.484 207.949 189.451 207.85C188.835 205.978 188.391 205.256 187.5 204.5Z" fill="white" stroke="#FEB914" stroke-width="0.3"/>
<defs>
<filter id="filter0_d_2_77" x="41.85" y="23.8601" width="122.977" height="112.583" filterUnits="userSpaceOnUse" color-interpolation-filters="sRGB">
<feFlood flood-opacity="0" result="BackgroundImageFix"/>
<feColorMatrix in="SourceAlpha" type="matrix" values="0 0 0 0 0 0 0 0 0 0 0 0 0 0 0 0 0 0 127 0" result="hardAlpha"/>
<feOffset dy="4"/>
<feGaussianBlur stdDeviation="2"/>
<feComposite in2="hardAlpha" operator="out"/>
<feColorMatrix type="matrix" values="0 0 0 0 0 0 0 0 0 0 0 0 0 0 0 0 0 0 0.25 0"/>
<feBlend mode="normal" in2="BackgroundImageFix" result="effect1_dropShadow_2_77"/>
<feBlend mode="normal" in="SourceGraphic" in2="effect1_dropShadow_2_77" result="shape"/>
</filter>
<radialGradient id="paint0_radial_2_77" cx="0" cy="0" r="1" gradientUnits="userSpaceOnUse" gradientTransform="translate(114 82) rotate(90) scale(82)">
<stop offset="0.785" stop-color="#FEB914"/>
<stop offset="1" stop-color="#D44D5C"/>
</radialGradient>
</defs>
</svg>
